<svg xmlns="http://www.w3.org/2000/svg" xmlns:xlink="http://www.w3.org/1999/xlink" width="500" zoomAndPan="magnify" viewBox="0 0 375 374.999991" height="500" preserveAspectRatio="xMidYMid meet" version="1.0"><defs><g/><clipPath id="id1"><path d="M 254 157 L 298 157 L 298 219 L 254 219 Z M 254 157 " clip-rule="nonzero"/></clipPath><clipPath id="id2"><path d="M 276.449219 223.757812 L 249.949219 164.132812 L 279.417969 151.035156 L 305.917969 210.660156 Z M 276.449219 223.757812 " clip-rule="nonzero"/></clipPath><clipPath id="id3"><path d="M 276.449219 223.757812 L 249.949219 164.132812 L 279.417969 151.035156 L 305.917969 210.660156 Z M 276.449219 223.757812 " clip-rule="nonzero"/></clipPath><clipPath id="id4"><path d="M 276.402344 223.648438 L 249.996094 164.242188 L 280.054688 150.882812 L 306.457031 210.289062 Z M 276.402344 223.648438 " clip-rule="nonzero"/></clipPath><clipPath id="id5"><path d="M 276.402344 223.648438 L 250 164.25 L 279.476562 151.148438 L 305.875 210.546875 Z M 276.402344 223.648438 " clip-rule="nonzero"/></clipPath></defs><g fill="#1c1721" fill-opacity="1"><g transform="translate(69.183802, 207.301011)"><g><path d="M 0.1875 -14.9375 L 0.1875 -18.671875 L 13.296875 -18.671875 L 13.296875 -14.9375 L 8.875 -14.9375 L 8.875 0 L 4.609375 0 L 4.609375 -14.9375 Z M 0.1875 -14.9375 "/></g></g></g><g fill="#1c1721" fill-opacity="1"><g transform="translate(82.665815, 207.301011)"><g><path d="M 5.609375 -7.484375 L 5.609375 0 L 1.359375 0 L 1.359375 -18.671875 L 5.609375 -18.671875 L 5.609375 -11.21875 L 11.625 -11.21875 L 11.625 -18.671875 L 15.875 -18.671875 L 15.875 0 L 11.625 0 L 11.625 -7.484375 Z M 5.609375 -7.484375 "/></g></g></g><g fill="#1c1721" fill-opacity="1"><g transform="translate(99.902876, 207.301011)"><g><path d="M 12.03125 -18.671875 L 12.03125 -14.9375 L 5.609375 -14.9375 L 5.609375 -11.21875 L 11.765625 -11.21875 L 11.765625 -7.484375 L 5.609375 -7.484375 L 5.609375 -3.734375 L 12.03125 -3.734375 L 12.03125 0 L 1.359375 0 L 1.359375 -18.671875 Z M 12.03125 -18.671875 "/></g></g></g><g fill="#1c1721" fill-opacity="1"><g transform="translate(113.022956, 207.301011)"><g/></g></g><g fill="#1c1721" fill-opacity="1"><g transform="translate(119.198441, 207.301011)"><g><path d="M 5.609375 -11.578125 L 5.609375 0 L 1.359375 0 L 1.359375 -18.671875 L 5.609375 -18.671875 L 13.03125 -7.078125 L 13.078125 -7.078125 L 13.078125 -18.671875 L 17.328125 -18.671875 L 17.328125 0 L 13.078125 0 L 5.65625 -11.578125 Z M 5.609375 -11.578125 "/></g></g></g><g fill="#1c1721" fill-opacity="1"><g transform="translate(137.883235, 207.301011)"><g><path d="M 12.03125 -18.671875 L 12.03125 -14.9375 L 5.609375 -14.9375 L 5.609375 -11.21875 L 11.765625 -11.21875 L 11.765625 -7.484375 L 5.609375 -7.484375 L 5.609375 -3.734375 L 12.03125 -3.734375 L 12.03125 0 L 1.359375 0 L 1.359375 -18.671875 Z M 12.03125 -18.671875 "/></g></g></g><g fill="#1c1721" fill-opacity="1"><g transform="translate(151.003315, 207.301011)"><g><path d="M 15.671875 0 L 12.6875 -10.46875 L 9.703125 0 L 4.984375 0 L -0.34375 -18.671875 L 4.390625 -18.671875 L 7.578125 -5.859375 L 7.6875 -5.859375 L 11.09375 -18.671875 L 14.296875 -18.671875 L 17.6875 -5.859375 L 17.8125 -5.859375 L 21 -18.671875 L 25.703125 -18.671875 L 20.390625 0 Z M 15.671875 0 "/></g></g></g><g fill="#1c1721" fill-opacity="1"><g transform="translate(176.361257, 207.301011)"><g><path d="M 8.234375 -19 C 9.242188 -19 10.226562 -18.851562 11.1875 -18.5625 C 12.15625 -18.269531 12.875 -17.976562 13.34375 -17.6875 L 14.03125 -17.234375 L 12.3125 -13.84375 C 12.175781 -13.9375 11.984375 -14.050781 11.734375 -14.1875 C 11.492188 -14.332031 11.039062 -14.523438 10.375 -14.765625 C 9.71875 -15.015625 9.101562 -15.140625 8.53125 -15.140625 C 7.820312 -15.140625 7.273438 -14.988281 6.890625 -14.6875 C 6.503906 -14.382812 6.3125 -13.976562 6.3125 -13.46875 C 6.3125 -13.207031 6.398438 -12.96875 6.578125 -12.75 C 6.765625 -12.53125 7.078125 -12.296875 7.515625 -12.046875 C 7.953125 -11.796875 8.332031 -11.59375 8.65625 -11.4375 C 8.988281 -11.289062 9.503906 -11.066406 10.203125 -10.765625 C 11.410156 -10.253906 12.441406 -9.554688 13.296875 -8.671875 C 14.148438 -7.796875 14.578125 -6.796875 14.578125 -5.671875 C 14.578125 -4.609375 14.382812 -3.675781 14 -2.875 C 13.613281 -2.070312 13.082031 -1.441406 12.40625 -0.984375 C 11.738281 -0.535156 10.992188 -0.203125 10.171875 0.015625 C 9.359375 0.234375 8.476562 0.34375 7.53125 0.34375 C 6.71875 0.34375 5.914062 0.257812 5.125 0.09375 C 4.34375 -0.0703125 3.6875 -0.28125 3.15625 -0.53125 C 2.632812 -0.78125 2.160156 -1.023438 1.734375 -1.265625 C 1.316406 -1.503906 1.007812 -1.707031 0.8125 -1.875 L 0.515625 -2.125 L 2.640625 -5.703125 C 2.828125 -5.546875 3.078125 -5.351562 3.390625 -5.125 C 3.710938 -4.894531 4.273438 -4.582031 5.078125 -4.1875 C 5.890625 -3.789062 6.601562 -3.59375 7.21875 -3.59375 C 9.007812 -3.59375 9.90625 -4.207031 9.90625 -5.4375 C 9.90625 -5.6875 9.84375 -5.921875 9.71875 -6.140625 C 9.59375 -6.359375 9.363281 -6.578125 9.03125 -6.796875 C 8.707031 -7.015625 8.421875 -7.1875 8.171875 -7.3125 C 7.929688 -7.445312 7.523438 -7.644531 6.953125 -7.90625 C 6.390625 -8.164062 5.972656 -8.363281 5.703125 -8.5 C 4.566406 -9.0625 3.691406 -9.757812 3.078125 -10.59375 C 2.460938 -11.4375 2.15625 -12.335938 2.15625 -13.296875 C 2.15625 -14.972656 2.769531 -16.34375 4 -17.40625 C 5.238281 -18.46875 6.648438 -19 8.234375 -19 Z M 8.234375 -19 "/></g></g></g><g fill="#1c1721" fill-opacity="1"><g transform="translate(191.562449, 207.301011)"><g/></g></g><g fill="#1c1721" fill-opacity="1"><g transform="translate(197.737934, 207.301011)"><g><path d="M 1.359375 -18.671875 L 8.03125 -18.671875 C 9.820312 -18.671875 11.285156 -18.191406 12.421875 -17.234375 C 13.554688 -16.273438 14.125 -14.90625 14.125 -13.125 C 14.125 -11.75 13.78125 -10.597656 13.09375 -9.671875 C 12.40625 -8.742188 11.472656 -8.09375 10.296875 -7.71875 L 16.71875 0 L 11.3125 0 L 5.609375 -7.375 L 5.609375 0 L 1.359375 0 Z M 5.609375 -10.390625 L 6.109375 -10.390625 C 6.503906 -10.390625 6.835938 -10.394531 7.109375 -10.40625 C 7.378906 -10.425781 7.6875 -10.476562 8.03125 -10.5625 C 8.375 -10.65625 8.648438 -10.785156 8.859375 -10.953125 C 9.078125 -11.117188 9.257812 -11.359375 9.40625 -11.671875 C 9.5625 -11.992188 9.640625 -12.378906 9.640625 -12.828125 C 9.640625 -13.273438 9.5625 -13.65625 9.40625 -13.96875 C 9.257812 -14.289062 9.078125 -14.535156 8.859375 -14.703125 C 8.648438 -14.867188 8.375 -15 8.03125 -15.09375 C 7.6875 -15.1875 7.378906 -15.238281 7.109375 -15.25 C 6.835938 -15.257812 6.503906 -15.265625 6.109375 -15.265625 L 5.609375 -15.265625 Z M 5.609375 -10.390625 "/></g></g></g><g fill="#1c1721" fill-opacity="1"><g transform="translate(213.934439, 207.301011)"><g><path d="M 0.515625 -9.34375 C 0.515625 -12.039062 1.4375 -14.320312 3.28125 -16.1875 C 5.125 -18.0625 7.34375 -19 9.9375 -19 C 12.539062 -19 14.753906 -18.066406 16.578125 -16.203125 C 18.410156 -14.347656 19.328125 -12.0625 19.328125 -9.34375 C 19.328125 -6.613281 18.425781 -4.316406 16.625 -2.453125 C 14.832031 -0.585938 12.601562 0.34375 9.9375 0.34375 C 7.207031 0.34375 4.953125 -0.578125 3.171875 -2.421875 C 1.398438 -4.273438 0.515625 -6.582031 0.515625 -9.34375 Z M 5.109375 -9.34375 C 5.109375 -8.363281 5.257812 -7.46875 5.5625 -6.65625 C 5.863281 -5.851562 6.390625 -5.171875 7.140625 -4.609375 C 7.898438 -4.054688 8.832031 -3.78125 9.9375 -3.78125 C 11.519531 -3.78125 12.710938 -4.320312 13.515625 -5.40625 C 14.328125 -6.488281 14.734375 -7.800781 14.734375 -9.34375 C 14.734375 -10.863281 14.320312 -12.171875 13.5 -13.265625 C 12.675781 -14.359375 11.488281 -14.90625 9.9375 -14.90625 C 8.394531 -14.90625 7.203125 -14.359375 6.359375 -13.265625 C 5.523438 -12.171875 5.109375 -10.863281 5.109375 -9.34375 Z M 5.109375 -9.34375 "/></g></g></g><g fill="#1c1721" fill-opacity="1"><g transform="translate(233.772897, 207.301011)"><g><path d="M 0.515625 -9.34375 C 0.515625 -12.039062 1.4375 -14.320312 3.28125 -16.1875 C 5.125 -18.0625 7.34375 -19 9.9375 -19 C 12.539062 -19 14.753906 -18.066406 16.578125 -16.203125 C 18.410156 -14.347656 19.328125 -12.0625 19.328125 -9.34375 C 19.328125 -6.613281 18.425781 -4.316406 16.625 -2.453125 C 14.832031 -0.585938 12.601562 0.34375 9.9375 0.34375 C 7.207031 0.34375 4.953125 -0.578125 3.171875 -2.421875 C 1.398438 -4.273438 0.515625 -6.582031 0.515625 -9.34375 Z M 5.109375 -9.34375 C 5.109375 -8.363281 5.257812 -7.46875 5.5625 -6.65625 C 5.863281 -5.851562 6.390625 -5.171875 7.140625 -4.609375 C 7.898438 -4.054688 8.832031 -3.78125 9.9375 -3.78125 C 11.519531 -3.78125 12.710938 -4.320312 13.515625 -5.40625 C 14.328125 -6.488281 14.734375 -7.800781 14.734375 -9.34375 C 14.734375 -10.863281 14.320312 -12.171875 13.5 -13.265625 C 12.675781 -14.359375 11.488281 -14.90625 9.9375 -14.90625 C 8.394531 -14.90625 7.203125 -14.359375 6.359375 -13.265625 C 5.523438 -12.171875 5.109375 -10.863281 5.109375 -9.34375 Z M 5.109375 -9.34375 "/></g></g></g><g fill="#1c1721" fill-opacity="1"><g transform="translate(253.611355, 207.301011)"><g><path d="M 16.78125 0 L 15.90625 -11.0625 L 15.796875 -11.0625 L 11.96875 -0.109375 L 9.4375 -0.109375 L 5.609375 -11.0625 L 5.5 -11.0625 L 4.609375 0 L 0.359375 0 L 2.03125 -18.671875 L 6.5625 -18.671875 L 10.703125 -7.890625 L 14.84375 -18.671875 L 19.359375 -18.671875 L 21.046875 0 Z M 16.78125 0 "/></g></g></g><g clip-path="url(#id1)"><g clip-path="url(#id2)"><g clip-path="url(#id3)"><g clip-path="url(#id4)"><g clip-path="url(#id5)"><path fill="#ff0000" d="M 261.851562 161.78125 C 270.417969 157.972656 282.804688 167.136719 289.519531 182.25 C 296.238281 197.359375 294.738281 212.695312 286.171875 216.503906 C 281.96875 218.375 276.839844 217.117188 271.917969 213.5625 C 277.75 218.375 284.003906 220.269531 289.039062 218.03125 C 298.339844 213.898438 299.964844 197.25 292.675781 180.847656 C 285.382812 164.441406 271.9375 154.496094 262.636719 158.628906 C 257.601562 160.867188 254.816406 166.777344 254.480469 174.332031 C 255.140625 168.296875 257.644531 163.648438 261.851562 161.78125 " fill-opacity="1" fill-rule="nonzero"/></g></g></g></g></g></svg>